<svg id="canvas" width="1366" height="566" viewBox="0 0 1366 566" xmlns="http://www.w3.org/2000/svg" xmlns:xlink="http://www.w3.org/1999/xlink" version="1.1" style="position:relative;" class="canvas-root-65fca" data-reactid="3"><defs data-reactid="4"><style data-reactid="5">#canvas [data-element="bg"] {fill: rgba(222, 183, 43, 1)}#canvas #original-97653 [data-element="el-0"] {fill:#E9CF72;stroke:none;}#canvas #original-97653 [data-element="el-1"] {fill:#E9CF72;stroke:none;}#canvas #original-97653 [data-element="el-2"] {fill:#E9CF72;stroke:none;}#canvas #original-97653 [data-element="el-3"] {fill:#E9CF72;stroke:none;}#canvas #original-97653 [data-element="el-4"] {fill:#E9CF72;stroke:none;}#canvas #original-97653 [data-element="el-5"] {fill:#E9CF72;stroke:none;}#canvas #original-97653 [data-element="el-6"] {fill:#E9CF72;stroke:none;}#canvas #original-97653 [data-element="el-7"] {fill:#E9CF72;stroke:none;}#canvas #original-97653 [data-element="el-8"] {fill:#E9CF72;stroke:none;}#canvas #original-97653 [data-element="el-9"] {fill:#E9CF72;stroke:none;}#canvas #original-97653 [data-element="el-10"] {fill:#E9CF72;stroke:none;}#canvas #original-97653 [data-element="el-11"] {fill:#E9CF72;stroke:none;}#canvas #original-97653 [data-element="el-12"] {fill:#E9CF72;stroke:none;}#canvas #original-97653 [data-element="el-13"] {fill:#E9CF72;stroke:none;}#canvas #original-97653 [data-element="el-14"] {fill:#E9CF72;stroke:none;}#canvas #original-97653 [data-element="el-15"] {fill:#E9CF72;stroke:none;}#canvas #original-97653 [data-element="el-16"] {fill:#E9CF72;stroke:none;}#canvas #original-97653 [data-element="el-17"] {fill:#E9CF72;stroke:none;}#canvas #original-97653 [data-element="el-18"] {fill:#E9CF72;stroke:none;}#canvas #original-97653 [data-element="el-19"] {fill:#E9CF72;stroke:none;}</style><pattern id="canvas-ptn-image" patternUnits="userSpaceOnUse" x="0" y="0" width="250" height="250" data-reactid="6"><rect x="0" y="0" width="250" height="250" data-element="bg" data-reactid="7"></rect><g><use xlink:href="#transformed-97653" x="-250" y="-250"></use><use xlink:href="#transformed-97653" x="0" y="-250"></use><use xlink:href="#transformed-97653" x="250" y="-250"></use><use xlink:href="#transformed-97653" x="-250" y="0"></use><use xlink:href="#transformed-97653" x="0" y="0"></use><use xlink:href="#transformed-97653" x="250" y="0"></use><use xlink:href="#transformed-97653" x="-250" y="250"></use><use xlink:href="#transformed-97653" x="0" y="250"></use><use xlink:href="#transformed-97653" x="250" y="250"></use></g></pattern><pattern id="canvas-ptn-grid" patternUnits="userSpaceOnUse" x="0" y="0" width="20" height="20" data-reactid="27"><line class="canvas-dottedBack-56d9e" x1="0" y1="19" x2="20" y2="19" data-reactid="28"></line><line class="canvas-dotted-f81e7" x1="0" y1="19" x2="20" y2="19" data-reactid="29"></line><line class="canvas-dottedBack-56d9e" x1="19" y1="0" x2="19" y2="20" data-reactid="30"></line><line class="canvas-dotted-f81e7" x1="19" y1="0" x2="19" y2="20" data-reactid="31"></line></pattern><pattern id="canvas-ptn-bounds" patternUnits="userSpaceOnUse" x="0" y="0" width="250" height="250" data-reactid="32"><line class="canvas-bounds-a46d8" x1="0" y1="249" x2="250" y2="249" data-reactid="33"></line><line class="canvas-bounds-a46d8" x1="249" y1="0" x2="249" y2="250" data-reactid="34"></line></pattern></defs><rect id="canvas-ptn-preview" width="1366" height="566" fill="url(#canvas-ptn-image)" data-reactid="35"></rect><g id="bgp-canvas-click-group-97653" class="canvas-clickGroup-c3d71" transform="translate(0, 0)"><g id="transformed-97653" data-image="97653" transform="translate(-65.5, -125) rotate(0, 65.5, 125)"><g><svg version="1.1" width="131px" height="250px" viewBox="0 0 131 250"><g id="original-97653"><svg xmlns="http://www.w3.org/2000/svg" version="1.1" viewBox="0 0 672 1280" xmlns:xlink="http://www.w3.org/1999/xlink" preserveAspectRatio="xMidYMid meet">
  <path d="M475.3 1.5c-17.8 5.5-31.9 25.7-35.4 50.8-2.8 19.9 5.4 41.7 18 47.9 7 3.5 16.7 3.2 24.5-.6 7.9-3.9 17.2-13.3 21.8-22.1 13.9-26.7 12.1-56.1-4.3-70.9-7.2-6.5-15-8.1-24.6-5.1z" data-element="el-0"></path>
  <path d="M558.9 48.9C543 54 527.2 68.4 518.8 85.5c-3.9 7.9-5.3 14.3-5.3 24 0 8.2.3 9.7 3.3 15.7 5.8 11.9 12.4 15.4 27.4 14.5 7.6-.4 9.7-1 17.5-4.7 7.3-3.5 10.3-5.8 17.3-12.9 8.8-8.8 13.3-15.9 18.1-28.6 3-7.9 3.2-20.6.5-28.5-2.6-7.4-10.3-15.2-16.8-16.8-6.6-1.7-15.3-1.4-21.9.7z" data-element="el-1"></path>
  <path d="M379.7 49.4c-10.4 3.7-19.8 16.6-24.2 33.1-1.9 7.2-2.2 23-.5 30 3.3 13.4 13.6 27.7 22.6 31.1 9.2 3.5 21.5-.4 29.4-9.3 9.1-10.3 14-24.3 14-39.8 0-26.5-13.9-46.6-32-46.4-3 0-7.2.6-9.3 1.3z" data-element="el-2"></path>
  <path d="M432.5 146.1c-13.8 2.1-30.3 9.2-46.8 20.3-18.4 12.3-35.4 29.7-38.2 38.9-4.3 14.4 1.4 28.1 14.4 34.6 6.8 3.4 15 5.5 29.6 7.6 15 2.2 22.9 4 30.4 7 12.2 5 17.9 9.8 32.7 27.5 6.3 7.6 13.2 15 15.3 16.4 11.8 8.2 26.9 8.8 35 1.3 9.9-9.2 14.3-29.5 12.1-56.7-2.3-29.6-5.8-44.7-14.2-62-6.2-12.8-14.2-21.4-25.5-27.3-12.5-6.6-31.1-9.7-44.8-7.6z" data-element="el-3"></path>
  <path d="M575.2 150.4c-10.6 2.6-20.1 8.2-29.3 17.5-11.4 11.5-16 20.4-16.7 32.1-.6 10.5 1 15.8 6.4 21.9 3.3 3.7 5.7 5.2 10.1 6.7 22.7 7.4 51.8-7.7 64.6-33.5 4-8.1 4.2-8.8 4.2-18 0-8.8-.3-10.1-3-15-1.7-3-4.6-6.4-6.6-7.8-7.5-4.9-19-6.4-29.7-3.9z" data-element="el-4"></path>
  <path d="M535 430.4c-8.5 1.8-12.9 4.4-20 11.6-7.2 7.2-13.4 18.4-16.6 30-2.6 9.2-2.6 27.5 0 35 3.7 11.1 10.4 20.1 17.1 23.1 6.5 3 15.7 2.5 23.3-1.1 25.4-12 39.3-54.1 26.7-80.7-6.9-14.8-17.1-20.7-30.5-17.9z" data-element="el-5"></path>
  <path d="M621 477c-21.7 3.9-44.1 26.4-49.6 49.7-2.1 9-1.5 20.1 1.6 27.1 3.3 7.6 10.4 13.7 17.7 15.2 23.7 5 51.7-15.1 62.8-45.1 5.1-13.5 3.5-28.5-4-38.3-5.2-6.8-17.7-10.6-28.5-8.6z" data-element="el-6"></path>
  <path d="M439 477.9c-19.4 6.3-32.6 35.9-27.6 61.6 2.9 14.5 11.5 27.9 21.2 32.6 3.8 1.8 5.7 2.1 11.2 1.7 8-.6 13.2-3 18.8-9 9.5-9.8 14.4-22.1 15.1-37.8.8-15.7-3.2-29.2-11.9-40.2-5.3-6.7-19.3-11.4-26.8-8.9z" data-element="el-7"></path>
  <path d="M131 528.3c-12.2 3.5-21.9 12-28.7 25.3-11.7 22.6-11.8 47-.2 64.3 5.9 8.9 11 11.6 21.4 11.6 6.8 0 8.8-.5 13.5-2.9 24.7-12.9 38.2-54.3 26.1-80.2-7-14.9-19.2-21.8-32.1-18.1z" data-element="el-8"></path>
  <path d="M215.3 575.4c-20.4 5.2-40.7 26.3-46.3 48.1-2.4 9.4-2.5 16-.4 23.4 2 7.1 5.8 12.7 11.3 16.6 3.8 2.7 5.2 3 13.2 3.3 6.9.3 10.4-.1 15.7-1.7 17.4-5.3 33.3-21.3 41.4-41.6 2.7-6.8 3.2-9.3 3.2-17 .1-11-1.9-17.5-7.4-23.8-2.2-2.5-5.9-5.2-8.2-6.2-5.6-2.2-16.1-2.8-22.5-1.1z" data-element="el-9"></path>
  <path d="M34.4 576.3c-15.1 5.7-26.6 27-26.6 49.2 0 15.7 4.9 28.9 14.3 38.4 6.2 6.3 11.9 8.6 19.9 7.8 7.4-.6 13.1-3.8 19.4-10.8C70.3 651 75 637.4 75 621.5c0-15.5-4.6-28.7-13.2-38-6.6-7.3-18.8-10.4-27.4-7.2z" data-element="el-10"></path>
  <path d="M484 576.4c-19.9 4.2-46.8 20.4-65.5 39.3-11.6 11.7-14.7 17-15.3 26.1-.8 11.7 3.5 20.4 12.8 26 7.6 4.5 15.3 6.7 32.6 9.2 32.9 4.6 42 9.6 62.8 34.4 12.1 14.4 15 17 21.6 20 18.6 8.4 33.1.4 39.1-21.6 2.2-8.2 2.7-24.7 1.3-41.3-2.3-27.2-5.8-41.8-13.9-58.4-7.8-16-21-27.1-38.3-32.3-8.7-2.6-28-3.3-37.2-1.4z" data-element="el-11"></path>
  <path d="M630.5 580.1c-14.4 4.8-26.1 13.1-34.7 24.7-16.5 22.3-12.7 47.8 8.1 53.6 16.9 4.7 35.2-1.4 50.7-16.9 6.4-6.4 9-10 12.5-17 4.3-8.6 4.4-9.1 4.3-17.9-.1-13.9-4.7-21.7-15-25.6-6-2.2-20.3-2.7-25.9-.9z" data-element="el-12"></path>
  <path d="M78 675c-9.8 2.5-31.1 13.3-43 21.8-11.5 8.2-27.5 24.1-31.4 31.1-7.2 13.3-2.8 30.2 9.9 38.1 6 3.7 14.7 6 33.5 9 33.6 5.3 41 9.4 61.4 33.9 15.9 19 22.4 23.3 35.4 23.2 20.8-.2 30.4-22.2 27.2-62.5-4.5-57.9-20.4-85.5-54.3-94.3-11.5-3-27.6-3.1-38.7-.3z" data-element="el-13"></path>
  <path d="M232.3 677.1c-16.2 2.8-32 14-42.3 30-4.8 7.4-7 14.7-7 23.1 0 16.6 8.9 25.8 26.5 27.4 17.9 1.7 40.3-11.3 51.9-30 10.4-16.7 10.1-34-.6-44.3-5.8-5.6-17.6-8.2-28.5-6.2z" data-element="el-14"></path>
  <path d="M229.9 976.9c-11.2 4.4-19.4 12.8-26 26.6-11.5 24.1-9.9 49.8 4.1 65.8 2.2 2.5 5.9 5.2 8.2 6.2 25.1 10.1 53.6-21.1 54-59 .1-13.9-2.8-23.1-10.3-32.5-6.7-8.3-19.3-11.3-30-7.1z" data-element="el-15"></path>
  <path d="M139.7 1023.1c-6.1 1.4-9.2 3.5-14.5 9.5-9.4 10.5-14.5 24.4-14.5 39.9-.1 15.2 4.3 27.8 12.9 37.4 6.3 7 11.1 9.3 18.9 9.3 28.2-.2 45.5-45.9 29.4-77.6-1.7-3.4-4.4-7.8-6.1-9.8-5.3-6.7-17.5-10.8-26.1-8.7z" data-element="el-16"></path>
  <path d="M314.1 1024c-12.5 4.6-24.6 14.5-33.1 27-19.2 28.3-11.8 61.9 13.9 63.8 22.9 1.7 47.6-17 58.2-44 7.4-18.9 2.4-39.2-11.5-46.6-5-2.6-20.7-2.7-27.5-.2z" data-element="el-17"></path>
  <path d="M187.8 1121c-13.7 2.5-29.1 9.4-46.3 20.8-11.8 7.8-32.1 27.3-35.5 34.2-2.8 5.6-3.8 16.1-2 21.6 4.8 14.7 15.2 20.2 46.1 24.8 32.1 4.8 40.6 9.4 61.1 33.8 12.3 14.6 14.8 17 21.7 20.4 7.1 3.5 18.5 4 24 1 16-8.6 21.1-35.9 15-79.6-3.8-27.8-11.5-46.5-24.4-59.6-7.6-7.7-17-13.1-28-15.9-7.1-1.9-25.1-2.8-31.7-1.5z" data-element="el-18"></path>
  <path d="M330.3 1125.5c-14.6 4-28.9 15.2-38.2 30-9.2 14.5-8.3 33.7 2 43 10.3 9.2 31.7 8.5 48.7-1.7 12-7.3 24.1-22.5 27.6-34.7 4.8-16.6-1.6-32-15.3-36.4-6.4-2.1-17.5-2.1-24.8-.2z" data-element="el-19"></path>
</svg>
</g></svg></g></g><g id="transformed-97653" data-image="97653" data-satelite="-1,-1" transform="translate(-315.5, -375) rotate(0, 65.5, 125)" class="canvas-satelite-76600"><g><svg version="1.1" width="131px" height="250px" viewBox="0 0 131 250"><g id="original-97653"><svg xmlns="http://www.w3.org/2000/svg" version="1.1" viewBox="0 0 672 1280" xmlns:xlink="http://www.w3.org/1999/xlink" preserveAspectRatio="xMidYMid meet">
  <path d="M475.3 1.5c-17.8 5.5-31.9 25.7-35.4 50.8-2.8 19.9 5.4 41.7 18 47.9 7 3.5 16.7 3.2 24.5-.6 7.9-3.9 17.2-13.3 21.8-22.1 13.9-26.7 12.1-56.1-4.3-70.9-7.2-6.5-15-8.1-24.6-5.1z" data-element="el-0"></path>
  <path d="M558.9 48.9C543 54 527.2 68.4 518.8 85.5c-3.9 7.9-5.3 14.3-5.3 24 0 8.2.3 9.7 3.3 15.7 5.8 11.9 12.4 15.4 27.4 14.5 7.6-.4 9.7-1 17.5-4.7 7.3-3.5 10.3-5.8 17.3-12.9 8.8-8.8 13.3-15.9 18.1-28.6 3-7.9 3.2-20.6.5-28.5-2.6-7.4-10.3-15.2-16.8-16.8-6.6-1.7-15.3-1.4-21.9.7z" data-element="el-1"></path>
  <path d="M379.7 49.4c-10.4 3.7-19.8 16.6-24.2 33.1-1.9 7.2-2.2 23-.5 30 3.3 13.4 13.6 27.7 22.6 31.1 9.2 3.5 21.5-.4 29.4-9.3 9.1-10.3 14-24.3 14-39.8 0-26.5-13.9-46.6-32-46.4-3 0-7.2.6-9.3 1.3z" data-element="el-2"></path>
  <path d="M432.5 146.1c-13.8 2.1-30.3 9.2-46.8 20.3-18.4 12.3-35.4 29.7-38.2 38.9-4.3 14.4 1.4 28.1 14.4 34.6 6.8 3.4 15 5.5 29.6 7.6 15 2.2 22.9 4 30.4 7 12.2 5 17.9 9.8 32.7 27.5 6.3 7.6 13.2 15 15.3 16.4 11.8 8.2 26.9 8.8 35 1.3 9.9-9.2 14.3-29.5 12.1-56.7-2.3-29.6-5.8-44.7-14.2-62-6.2-12.8-14.2-21.4-25.5-27.3-12.5-6.6-31.1-9.7-44.8-7.6z" data-element="el-3"></path>
  <path d="M575.2 150.4c-10.6 2.6-20.1 8.2-29.3 17.5-11.4 11.5-16 20.4-16.7 32.1-.6 10.5 1 15.8 6.4 21.9 3.3 3.7 5.7 5.2 10.1 6.7 22.7 7.4 51.8-7.7 64.6-33.5 4-8.1 4.2-8.8 4.2-18 0-8.8-.3-10.1-3-15-1.7-3-4.6-6.4-6.6-7.8-7.5-4.9-19-6.4-29.7-3.9z" data-element="el-4"></path>
  <path d="M535 430.4c-8.5 1.8-12.9 4.4-20 11.6-7.2 7.2-13.4 18.4-16.6 30-2.6 9.2-2.6 27.5 0 35 3.7 11.1 10.4 20.1 17.1 23.1 6.5 3 15.7 2.5 23.3-1.1 25.4-12 39.3-54.1 26.7-80.7-6.9-14.8-17.1-20.7-30.5-17.9z" data-element="el-5"></path>
  <path d="M621 477c-21.7 3.9-44.1 26.4-49.6 49.7-2.1 9-1.5 20.1 1.6 27.1 3.3 7.6 10.4 13.7 17.7 15.2 23.7 5 51.7-15.1 62.8-45.1 5.1-13.5 3.5-28.5-4-38.3-5.2-6.8-17.7-10.6-28.5-8.6z" data-element="el-6"></path>
  <path d="M439 477.9c-19.4 6.3-32.6 35.9-27.6 61.6 2.9 14.5 11.5 27.9 21.2 32.6 3.8 1.8 5.7 2.1 11.2 1.7 8-.6 13.2-3 18.8-9 9.5-9.8 14.4-22.1 15.1-37.8.8-15.7-3.2-29.2-11.9-40.2-5.3-6.7-19.3-11.4-26.8-8.9z" data-element="el-7"></path>
  <path d="M131 528.3c-12.2 3.5-21.9 12-28.7 25.3-11.7 22.6-11.8 47-.2 64.3 5.9 8.9 11 11.6 21.4 11.6 6.8 0 8.8-.5 13.5-2.9 24.7-12.9 38.2-54.3 26.1-80.2-7-14.9-19.2-21.8-32.1-18.1z" data-element="el-8"></path>
  <path d="M215.3 575.4c-20.4 5.2-40.7 26.3-46.3 48.1-2.4 9.4-2.5 16-.4 23.4 2 7.1 5.8 12.7 11.3 16.6 3.8 2.7 5.2 3 13.2 3.3 6.9.3 10.4-.1 15.7-1.7 17.4-5.3 33.3-21.3 41.4-41.6 2.7-6.8 3.2-9.3 3.2-17 .1-11-1.9-17.5-7.4-23.8-2.2-2.5-5.9-5.2-8.2-6.2-5.6-2.2-16.1-2.8-22.5-1.1z" data-element="el-9"></path>
  <path d="M34.4 576.3c-15.1 5.7-26.6 27-26.6 49.2 0 15.7 4.9 28.9 14.3 38.4 6.2 6.3 11.9 8.6 19.9 7.8 7.4-.6 13.1-3.8 19.4-10.8C70.3 651 75 637.4 75 621.5c0-15.5-4.6-28.7-13.2-38-6.6-7.3-18.8-10.4-27.4-7.2z" data-element="el-10"></path>
  <path d="M484 576.4c-19.9 4.2-46.8 20.4-65.5 39.3-11.6 11.7-14.7 17-15.3 26.1-.8 11.7 3.5 20.4 12.8 26 7.6 4.5 15.3 6.7 32.6 9.2 32.9 4.6 42 9.6 62.8 34.4 12.1 14.4 15 17 21.6 20 18.6 8.4 33.1.4 39.1-21.6 2.2-8.2 2.7-24.7 1.3-41.3-2.3-27.2-5.8-41.8-13.9-58.4-7.8-16-21-27.1-38.3-32.3-8.7-2.6-28-3.3-37.2-1.4z" data-element="el-11"></path>
  <path d="M630.5 580.1c-14.4 4.8-26.1 13.1-34.7 24.7-16.5 22.3-12.7 47.8 8.1 53.6 16.9 4.7 35.2-1.4 50.7-16.9 6.4-6.4 9-10 12.5-17 4.3-8.6 4.4-9.1 4.3-17.9-.1-13.9-4.7-21.7-15-25.6-6-2.2-20.3-2.7-25.9-.9z" data-element="el-12"></path>
  <path d="M78 675c-9.8 2.5-31.1 13.3-43 21.8-11.5 8.2-27.5 24.1-31.4 31.1-7.2 13.3-2.8 30.2 9.9 38.1 6 3.7 14.7 6 33.5 9 33.6 5.3 41 9.4 61.4 33.9 15.9 19 22.4 23.3 35.4 23.2 20.8-.2 30.4-22.2 27.2-62.5-4.5-57.9-20.4-85.5-54.3-94.3-11.5-3-27.6-3.1-38.7-.3z" data-element="el-13"></path>
  <path d="M232.3 677.1c-16.2 2.8-32 14-42.3 30-4.8 7.4-7 14.7-7 23.1 0 16.6 8.9 25.8 26.5 27.4 17.9 1.7 40.3-11.3 51.9-30 10.4-16.7 10.1-34-.6-44.3-5.8-5.6-17.6-8.2-28.5-6.2z" data-element="el-14"></path>
  <path d="M229.9 976.9c-11.2 4.4-19.4 12.8-26 26.6-11.5 24.1-9.9 49.8 4.1 65.8 2.2 2.5 5.9 5.2 8.2 6.2 25.1 10.1 53.6-21.1 54-59 .1-13.9-2.8-23.1-10.3-32.5-6.7-8.3-19.3-11.3-30-7.1z" data-element="el-15"></path>
  <path d="M139.7 1023.1c-6.1 1.4-9.2 3.5-14.5 9.5-9.4 10.5-14.5 24.4-14.5 39.9-.1 15.2 4.3 27.8 12.9 37.4 6.3 7 11.1 9.3 18.9 9.3 28.2-.2 45.5-45.9 29.4-77.6-1.7-3.4-4.4-7.8-6.1-9.8-5.3-6.7-17.5-10.8-26.1-8.7z" data-element="el-16"></path>
  <path d="M314.1 1024c-12.5 4.6-24.6 14.5-33.1 27-19.2 28.3-11.8 61.9 13.9 63.8 22.9 1.7 47.6-17 58.2-44 7.4-18.9 2.4-39.2-11.5-46.6-5-2.6-20.7-2.7-27.5-.2z" data-element="el-17"></path>
  <path d="M187.8 1121c-13.7 2.5-29.1 9.4-46.3 20.8-11.8 7.8-32.1 27.3-35.5 34.2-2.8 5.6-3.8 16.1-2 21.6 4.8 14.7 15.2 20.2 46.1 24.8 32.1 4.8 40.6 9.4 61.1 33.8 12.3 14.6 14.8 17 21.7 20.4 7.1 3.5 18.5 4 24 1 16-8.6 21.1-35.9 15-79.6-3.8-27.8-11.5-46.5-24.4-59.6-7.6-7.7-17-13.1-28-15.9-7.1-1.9-25.1-2.8-31.7-1.5z" data-element="el-18"></path>
  <path d="M330.3 1125.5c-14.6 4-28.9 15.2-38.2 30-9.2 14.5-8.3 33.7 2 43 10.3 9.2 31.7 8.5 48.7-1.7 12-7.3 24.1-22.5 27.6-34.7 4.8-16.6-1.6-32-15.3-36.4-6.4-2.1-17.5-2.1-24.8-.2z" data-element="el-19"></path>
</svg>
</g></svg></g></g><g id="transformed-97653" data-image="97653" data-satelite="0,-1" transform="translate(-65.5, -375) rotate(0, 65.5, 125)" class="canvas-satelite-76600"><g><svg version="1.1" width="131px" height="250px" viewBox="0 0 131 250"><g id="original-97653"><svg xmlns="http://www.w3.org/2000/svg" version="1.1" viewBox="0 0 672 1280" xmlns:xlink="http://www.w3.org/1999/xlink" preserveAspectRatio="xMidYMid meet">
  <path d="M475.3 1.5c-17.8 5.5-31.9 25.7-35.4 50.8-2.8 19.9 5.4 41.7 18 47.9 7 3.5 16.7 3.2 24.5-.6 7.9-3.9 17.2-13.3 21.8-22.1 13.9-26.7 12.1-56.1-4.3-70.9-7.2-6.5-15-8.1-24.6-5.1z" data-element="el-0"></path>
  <path d="M558.9 48.9C543 54 527.2 68.4 518.8 85.5c-3.9 7.9-5.3 14.3-5.3 24 0 8.2.3 9.7 3.3 15.7 5.8 11.9 12.4 15.4 27.4 14.5 7.6-.4 9.7-1 17.5-4.7 7.3-3.5 10.3-5.8 17.3-12.9 8.8-8.8 13.3-15.9 18.1-28.6 3-7.9 3.2-20.6.5-28.5-2.6-7.4-10.3-15.2-16.8-16.8-6.6-1.7-15.3-1.4-21.9.7z" data-element="el-1"></path>
  <path d="M379.7 49.4c-10.4 3.7-19.8 16.6-24.2 33.1-1.9 7.2-2.2 23-.5 30 3.3 13.4 13.6 27.7 22.6 31.1 9.2 3.5 21.5-.4 29.4-9.3 9.1-10.3 14-24.3 14-39.8 0-26.5-13.9-46.6-32-46.4-3 0-7.2.6-9.3 1.3z" data-element="el-2"></path>
  <path d="M432.5 146.1c-13.8 2.1-30.3 9.2-46.8 20.3-18.4 12.3-35.4 29.7-38.2 38.9-4.3 14.4 1.4 28.1 14.4 34.6 6.8 3.4 15 5.5 29.6 7.6 15 2.2 22.9 4 30.4 7 12.2 5 17.9 9.8 32.7 27.5 6.3 7.6 13.2 15 15.3 16.4 11.8 8.2 26.9 8.8 35 1.3 9.9-9.2 14.3-29.5 12.1-56.7-2.3-29.6-5.8-44.7-14.2-62-6.2-12.8-14.2-21.4-25.5-27.3-12.5-6.6-31.1-9.7-44.8-7.6z" data-element="el-3"></path>
  <path d="M575.2 150.4c-10.6 2.6-20.1 8.2-29.3 17.5-11.4 11.5-16 20.4-16.7 32.1-.6 10.5 1 15.8 6.4 21.9 3.3 3.7 5.7 5.2 10.1 6.7 22.7 7.4 51.8-7.7 64.6-33.5 4-8.1 4.2-8.8 4.2-18 0-8.8-.3-10.1-3-15-1.7-3-4.6-6.4-6.6-7.8-7.5-4.9-19-6.4-29.7-3.9z" data-element="el-4"></path>
  <path d="M535 430.4c-8.5 1.8-12.9 4.4-20 11.6-7.2 7.2-13.4 18.4-16.6 30-2.6 9.2-2.6 27.5 0 35 3.7 11.1 10.4 20.1 17.1 23.1 6.5 3 15.7 2.5 23.3-1.1 25.4-12 39.3-54.1 26.7-80.7-6.9-14.8-17.1-20.7-30.5-17.9z" data-element="el-5"></path>
  <path d="M621 477c-21.7 3.9-44.1 26.4-49.6 49.7-2.1 9-1.5 20.1 1.6 27.1 3.3 7.6 10.4 13.7 17.7 15.2 23.7 5 51.7-15.1 62.8-45.1 5.1-13.5 3.5-28.5-4-38.3-5.2-6.8-17.7-10.6-28.5-8.6z" data-element="el-6"></path>
  <path d="M439 477.9c-19.4 6.3-32.6 35.9-27.6 61.6 2.9 14.5 11.5 27.9 21.2 32.6 3.8 1.8 5.7 2.1 11.2 1.7 8-.6 13.2-3 18.8-9 9.5-9.8 14.4-22.1 15.1-37.8.8-15.7-3.2-29.2-11.9-40.2-5.3-6.7-19.3-11.4-26.8-8.9z" data-element="el-7"></path>
  <path d="M131 528.3c-12.2 3.5-21.9 12-28.7 25.3-11.7 22.6-11.8 47-.2 64.3 5.9 8.9 11 11.6 21.4 11.6 6.8 0 8.8-.5 13.5-2.9 24.7-12.9 38.2-54.3 26.1-80.2-7-14.9-19.2-21.8-32.1-18.1z" data-element="el-8"></path>
  <path d="M215.3 575.4c-20.4 5.2-40.7 26.3-46.3 48.1-2.4 9.4-2.5 16-.4 23.4 2 7.1 5.8 12.7 11.3 16.6 3.8 2.7 5.2 3 13.2 3.3 6.9.3 10.4-.1 15.7-1.7 17.4-5.3 33.3-21.3 41.4-41.6 2.7-6.8 3.2-9.3 3.2-17 .1-11-1.9-17.5-7.4-23.8-2.2-2.5-5.9-5.2-8.2-6.2-5.6-2.2-16.1-2.8-22.5-1.1z" data-element="el-9"></path>
  <path d="M34.4 576.3c-15.1 5.7-26.6 27-26.6 49.2 0 15.7 4.9 28.9 14.3 38.4 6.2 6.3 11.9 8.6 19.9 7.8 7.4-.6 13.1-3.8 19.4-10.8C70.3 651 75 637.4 75 621.5c0-15.5-4.6-28.7-13.2-38-6.6-7.3-18.8-10.4-27.4-7.2z" data-element="el-10"></path>
  <path d="M484 576.4c-19.9 4.2-46.8 20.4-65.5 39.3-11.6 11.7-14.7 17-15.3 26.1-.8 11.7 3.5 20.4 12.8 26 7.6 4.5 15.3 6.7 32.6 9.2 32.9 4.6 42 9.6 62.8 34.4 12.1 14.4 15 17 21.6 20 18.6 8.4 33.1.4 39.1-21.6 2.2-8.2 2.7-24.7 1.3-41.3-2.3-27.2-5.8-41.8-13.9-58.4-7.8-16-21-27.1-38.3-32.3-8.7-2.6-28-3.3-37.2-1.4z" data-element="el-11"></path>
  <path d="M630.5 580.1c-14.4 4.8-26.1 13.1-34.7 24.7-16.5 22.3-12.7 47.8 8.1 53.6 16.9 4.7 35.2-1.4 50.7-16.9 6.4-6.4 9-10 12.5-17 4.3-8.6 4.4-9.1 4.3-17.9-.1-13.9-4.7-21.7-15-25.6-6-2.2-20.3-2.7-25.9-.9z" data-element="el-12"></path>
  <path d="M78 675c-9.8 2.5-31.1 13.3-43 21.8-11.5 8.2-27.5 24.1-31.4 31.1-7.2 13.3-2.8 30.2 9.9 38.1 6 3.7 14.7 6 33.5 9 33.6 5.3 41 9.4 61.4 33.9 15.9 19 22.4 23.3 35.4 23.2 20.8-.2 30.4-22.2 27.2-62.5-4.5-57.9-20.4-85.5-54.3-94.3-11.5-3-27.6-3.1-38.7-.3z" data-element="el-13"></path>
  <path d="M232.3 677.1c-16.2 2.8-32 14-42.3 30-4.8 7.4-7 14.7-7 23.1 0 16.6 8.9 25.8 26.5 27.4 17.9 1.7 40.3-11.3 51.9-30 10.4-16.7 10.1-34-.6-44.3-5.8-5.6-17.6-8.2-28.5-6.2z" data-element="el-14"></path>
  <path d="M229.9 976.9c-11.2 4.4-19.4 12.8-26 26.6-11.5 24.1-9.9 49.8 4.1 65.8 2.2 2.5 5.9 5.2 8.2 6.2 25.1 10.1 53.6-21.1 54-59 .1-13.9-2.8-23.1-10.3-32.5-6.7-8.3-19.3-11.3-30-7.1z" data-element="el-15"></path>
  <path d="M139.7 1023.1c-6.1 1.4-9.2 3.5-14.5 9.5-9.4 10.5-14.5 24.4-14.5 39.9-.1 15.2 4.3 27.8 12.9 37.4 6.3 7 11.1 9.3 18.9 9.3 28.2-.2 45.5-45.9 29.4-77.6-1.7-3.4-4.4-7.8-6.1-9.8-5.3-6.7-17.5-10.8-26.1-8.7z" data-element="el-16"></path>
  <path d="M314.1 1024c-12.5 4.6-24.6 14.5-33.1 27-19.2 28.3-11.8 61.9 13.9 63.8 22.9 1.7 47.6-17 58.2-44 7.4-18.9 2.4-39.2-11.5-46.6-5-2.6-20.7-2.7-27.5-.2z" data-element="el-17"></path>
  <path d="M187.8 1121c-13.7 2.5-29.1 9.4-46.3 20.8-11.8 7.8-32.1 27.3-35.5 34.2-2.8 5.6-3.8 16.1-2 21.6 4.8 14.7 15.2 20.2 46.1 24.8 32.1 4.8 40.6 9.4 61.1 33.8 12.3 14.6 14.8 17 21.7 20.4 7.1 3.5 18.5 4 24 1 16-8.6 21.1-35.9 15-79.6-3.8-27.8-11.5-46.5-24.4-59.6-7.6-7.7-17-13.1-28-15.9-7.1-1.9-25.1-2.8-31.7-1.5z" data-element="el-18"></path>
  <path d="M330.3 1125.5c-14.6 4-28.9 15.2-38.2 30-9.2 14.5-8.3 33.7 2 43 10.3 9.2 31.7 8.5 48.7-1.7 12-7.3 24.1-22.5 27.6-34.7 4.8-16.6-1.6-32-15.3-36.4-6.4-2.1-17.5-2.1-24.8-.2z" data-element="el-19"></path>
</svg>
</g></svg></g></g><g id="transformed-97653" data-image="97653" data-satelite="1,-1" transform="translate(184.5, -375) rotate(0, 65.5, 125)" class="canvas-satelite-76600"><g><svg version="1.1" width="131px" height="250px" viewBox="0 0 131 250"><g id="original-97653"><svg xmlns="http://www.w3.org/2000/svg" version="1.1" viewBox="0 0 672 1280" xmlns:xlink="http://www.w3.org/1999/xlink" preserveAspectRatio="xMidYMid meet">
  <path d="M475.3 1.5c-17.8 5.5-31.9 25.7-35.4 50.8-2.8 19.9 5.4 41.7 18 47.9 7 3.5 16.7 3.2 24.5-.6 7.9-3.9 17.2-13.3 21.8-22.1 13.9-26.7 12.1-56.1-4.3-70.9-7.2-6.5-15-8.1-24.6-5.1z" data-element="el-0"></path>
  <path d="M558.9 48.9C543 54 527.2 68.4 518.8 85.5c-3.9 7.9-5.3 14.3-5.3 24 0 8.2.3 9.7 3.3 15.7 5.8 11.9 12.4 15.4 27.4 14.5 7.6-.4 9.7-1 17.5-4.7 7.3-3.5 10.3-5.8 17.3-12.9 8.8-8.8 13.3-15.9 18.1-28.6 3-7.9 3.2-20.6.5-28.5-2.6-7.4-10.3-15.2-16.8-16.8-6.6-1.7-15.3-1.4-21.9.7z" data-element="el-1"></path>
  <path d="M379.7 49.4c-10.4 3.7-19.8 16.6-24.2 33.1-1.9 7.2-2.2 23-.5 30 3.3 13.4 13.6 27.7 22.6 31.1 9.2 3.5 21.5-.4 29.4-9.3 9.1-10.3 14-24.3 14-39.8 0-26.5-13.9-46.6-32-46.4-3 0-7.2.6-9.3 1.3z" data-element="el-2"></path>
  <path d="M432.5 146.1c-13.8 2.1-30.3 9.2-46.8 20.3-18.4 12.3-35.4 29.7-38.2 38.9-4.3 14.4 1.4 28.1 14.4 34.6 6.8 3.4 15 5.5 29.6 7.6 15 2.2 22.9 4 30.4 7 12.2 5 17.9 9.8 32.7 27.5 6.3 7.6 13.2 15 15.3 16.4 11.8 8.2 26.9 8.8 35 1.3 9.9-9.2 14.3-29.5 12.1-56.7-2.3-29.6-5.8-44.7-14.2-62-6.2-12.8-14.2-21.4-25.5-27.3-12.5-6.6-31.1-9.7-44.8-7.6z" data-element="el-3"></path>
  <path d="M575.2 150.4c-10.6 2.6-20.1 8.2-29.3 17.5-11.4 11.5-16 20.4-16.7 32.1-.6 10.5 1 15.8 6.4 21.9 3.3 3.7 5.7 5.2 10.1 6.7 22.7 7.4 51.8-7.7 64.6-33.5 4-8.1 4.2-8.8 4.2-18 0-8.8-.3-10.1-3-15-1.7-3-4.6-6.4-6.6-7.8-7.5-4.9-19-6.4-29.7-3.9z" data-element="el-4"></path>
  <path d="M535 430.4c-8.5 1.8-12.9 4.4-20 11.6-7.2 7.2-13.4 18.4-16.6 30-2.6 9.2-2.6 27.5 0 35 3.7 11.1 10.4 20.1 17.1 23.1 6.5 3 15.7 2.5 23.3-1.1 25.4-12 39.3-54.1 26.7-80.7-6.9-14.8-17.1-20.7-30.5-17.9z" data-element="el-5"></path>
  <path d="M621 477c-21.7 3.9-44.1 26.4-49.6 49.7-2.1 9-1.5 20.1 1.6 27.1 3.3 7.6 10.4 13.7 17.7 15.2 23.7 5 51.7-15.1 62.8-45.1 5.1-13.5 3.5-28.5-4-38.3-5.2-6.8-17.7-10.6-28.5-8.6z" data-element="el-6"></path>
  <path d="M439 477.9c-19.4 6.3-32.6 35.9-27.6 61.6 2.9 14.5 11.5 27.9 21.2 32.6 3.8 1.8 5.7 2.1 11.2 1.7 8-.6 13.2-3 18.8-9 9.5-9.8 14.4-22.1 15.1-37.8.8-15.7-3.2-29.2-11.9-40.2-5.3-6.7-19.3-11.4-26.8-8.9z" data-element="el-7"></path>
  <path d="M131 528.3c-12.2 3.5-21.9 12-28.7 25.3-11.7 22.6-11.8 47-.2 64.3 5.9 8.9 11 11.6 21.4 11.6 6.8 0 8.8-.5 13.5-2.9 24.7-12.9 38.2-54.3 26.1-80.2-7-14.9-19.2-21.8-32.1-18.1z" data-element="el-8"></path>
  <path d="M215.3 575.4c-20.4 5.2-40.7 26.3-46.3 48.1-2.4 9.4-2.5 16-.4 23.4 2 7.1 5.8 12.7 11.3 16.6 3.8 2.7 5.2 3 13.2 3.3 6.9.3 10.4-.1 15.7-1.7 17.4-5.3 33.3-21.3 41.4-41.6 2.7-6.8 3.2-9.3 3.2-17 .1-11-1.9-17.5-7.4-23.8-2.2-2.5-5.9-5.2-8.2-6.2-5.6-2.2-16.1-2.8-22.5-1.1z" data-element="el-9"></path>
  <path d="M34.4 576.3c-15.1 5.7-26.6 27-26.6 49.2 0 15.7 4.9 28.9 14.3 38.4 6.2 6.3 11.9 8.6 19.9 7.8 7.4-.6 13.1-3.8 19.4-10.8C70.3 651 75 637.4 75 621.5c0-15.5-4.6-28.7-13.2-38-6.6-7.3-18.8-10.4-27.4-7.2z" data-element="el-10"></path>
  <path d="M484 576.4c-19.9 4.2-46.8 20.4-65.5 39.3-11.6 11.7-14.7 17-15.3 26.1-.8 11.7 3.5 20.4 12.8 26 7.6 4.5 15.3 6.7 32.6 9.2 32.9 4.6 42 9.6 62.8 34.4 12.1 14.4 15 17 21.6 20 18.6 8.4 33.1.4 39.1-21.6 2.2-8.2 2.7-24.7 1.3-41.3-2.3-27.2-5.8-41.8-13.9-58.4-7.8-16-21-27.1-38.3-32.3-8.7-2.6-28-3.3-37.2-1.4z" data-element="el-11"></path>
  <path d="M630.5 580.1c-14.4 4.8-26.1 13.1-34.7 24.7-16.5 22.3-12.7 47.8 8.1 53.6 16.9 4.7 35.2-1.4 50.7-16.9 6.4-6.4 9-10 12.5-17 4.3-8.6 4.4-9.1 4.3-17.9-.1-13.9-4.7-21.7-15-25.6-6-2.2-20.3-2.7-25.9-.9z" data-element="el-12"></path>
  <path d="M78 675c-9.8 2.5-31.1 13.3-43 21.8-11.5 8.2-27.5 24.1-31.4 31.1-7.2 13.3-2.8 30.2 9.9 38.1 6 3.7 14.7 6 33.5 9 33.6 5.3 41 9.4 61.4 33.9 15.9 19 22.4 23.3 35.4 23.2 20.8-.2 30.4-22.2 27.2-62.5-4.5-57.9-20.4-85.5-54.3-94.3-11.5-3-27.6-3.1-38.7-.3z" data-element="el-13"></path>
  <path d="M232.3 677.1c-16.2 2.8-32 14-42.3 30-4.8 7.4-7 14.7-7 23.1 0 16.6 8.9 25.8 26.5 27.4 17.9 1.7 40.3-11.3 51.9-30 10.4-16.7 10.1-34-.6-44.3-5.8-5.6-17.6-8.2-28.5-6.2z" data-element="el-14"></path>
  <path d="M229.9 976.9c-11.2 4.4-19.4 12.8-26 26.6-11.5 24.1-9.9 49.8 4.1 65.8 2.2 2.5 5.9 5.2 8.2 6.2 25.1 10.1 53.6-21.1 54-59 .1-13.9-2.8-23.1-10.3-32.5-6.7-8.3-19.3-11.3-30-7.1z" data-element="el-15"></path>
  <path d="M139.7 1023.1c-6.1 1.4-9.2 3.5-14.5 9.5-9.4 10.5-14.5 24.4-14.5 39.9-.1 15.2 4.3 27.8 12.9 37.4 6.3 7 11.1 9.3 18.9 9.3 28.2-.2 45.5-45.9 29.4-77.6-1.7-3.4-4.4-7.8-6.1-9.8-5.3-6.7-17.5-10.8-26.1-8.7z" data-element="el-16"></path>
  <path d="M314.1 1024c-12.5 4.6-24.6 14.5-33.1 27-19.2 28.3-11.8 61.9 13.9 63.8 22.9 1.7 47.6-17 58.2-44 7.4-18.9 2.4-39.2-11.5-46.6-5-2.6-20.7-2.7-27.5-.2z" data-element="el-17"></path>
  <path d="M187.8 1121c-13.7 2.5-29.1 9.4-46.3 20.8-11.8 7.8-32.1 27.3-35.5 34.2-2.8 5.6-3.8 16.1-2 21.6 4.8 14.7 15.2 20.2 46.1 24.8 32.1 4.8 40.6 9.4 61.1 33.8 12.3 14.6 14.8 17 21.7 20.4 7.1 3.5 18.5 4 24 1 16-8.6 21.1-35.9 15-79.6-3.8-27.8-11.5-46.5-24.4-59.6-7.6-7.7-17-13.1-28-15.9-7.1-1.9-25.1-2.8-31.7-1.5z" data-element="el-18"></path>
  <path d="M330.3 1125.5c-14.6 4-28.9 15.2-38.2 30-9.2 14.5-8.3 33.7 2 43 10.3 9.2 31.7 8.5 48.7-1.7 12-7.3 24.1-22.5 27.6-34.7 4.8-16.6-1.6-32-15.3-36.4-6.4-2.1-17.5-2.1-24.8-.2z" data-element="el-19"></path>
</svg>
</g></svg></g></g><g id="transformed-97653" data-image="97653" data-satelite="-1,0" transform="translate(-315.5, -125) rotate(0, 65.5, 125)" class="canvas-satelite-76600"><g><svg version="1.1" width="131px" height="250px" viewBox="0 0 131 250"><g id="original-97653"><svg xmlns="http://www.w3.org/2000/svg" version="1.1" viewBox="0 0 672 1280" xmlns:xlink="http://www.w3.org/1999/xlink" preserveAspectRatio="xMidYMid meet">
  <path d="M475.3 1.5c-17.8 5.5-31.9 25.7-35.4 50.8-2.8 19.9 5.4 41.7 18 47.9 7 3.5 16.7 3.2 24.5-.6 7.9-3.9 17.2-13.3 21.8-22.1 13.9-26.7 12.1-56.1-4.3-70.9-7.2-6.5-15-8.1-24.6-5.1z" data-element="el-0"></path>
  <path d="M558.9 48.9C543 54 527.2 68.4 518.8 85.5c-3.9 7.9-5.3 14.3-5.3 24 0 8.2.3 9.7 3.3 15.7 5.8 11.9 12.4 15.4 27.4 14.5 7.6-.4 9.7-1 17.5-4.7 7.3-3.5 10.3-5.8 17.3-12.9 8.8-8.8 13.3-15.9 18.1-28.6 3-7.9 3.2-20.6.5-28.5-2.6-7.4-10.3-15.2-16.8-16.8-6.6-1.7-15.3-1.4-21.9.7z" data-element="el-1"></path>
  <path d="M379.7 49.4c-10.4 3.7-19.8 16.6-24.2 33.1-1.9 7.2-2.2 23-.5 30 3.3 13.4 13.6 27.7 22.6 31.1 9.2 3.5 21.5-.4 29.4-9.3 9.1-10.3 14-24.3 14-39.8 0-26.5-13.9-46.6-32-46.4-3 0-7.2.6-9.3 1.3z" data-element="el-2"></path>
  <path d="M432.5 146.1c-13.8 2.1-30.3 9.2-46.8 20.3-18.4 12.3-35.4 29.7-38.2 38.9-4.3 14.4 1.4 28.1 14.4 34.6 6.8 3.4 15 5.5 29.6 7.6 15 2.2 22.9 4 30.4 7 12.2 5 17.9 9.8 32.7 27.5 6.3 7.6 13.2 15 15.3 16.4 11.8 8.2 26.9 8.8 35 1.3 9.9-9.2 14.3-29.5 12.1-56.7-2.3-29.6-5.8-44.7-14.2-62-6.2-12.8-14.2-21.4-25.5-27.3-12.5-6.6-31.1-9.7-44.8-7.6z" data-element="el-3"></path>
  <path d="M575.2 150.4c-10.6 2.6-20.1 8.2-29.3 17.5-11.4 11.5-16 20.4-16.7 32.1-.6 10.5 1 15.8 6.4 21.9 3.3 3.7 5.7 5.2 10.1 6.7 22.7 7.4 51.8-7.7 64.6-33.5 4-8.1 4.2-8.8 4.2-18 0-8.8-.3-10.1-3-15-1.7-3-4.6-6.4-6.6-7.8-7.5-4.9-19-6.4-29.7-3.9z" data-element="el-4"></path>
  <path d="M535 430.4c-8.5 1.8-12.9 4.4-20 11.6-7.2 7.2-13.4 18.4-16.6 30-2.6 9.2-2.6 27.5 0 35 3.7 11.1 10.4 20.1 17.1 23.1 6.5 3 15.7 2.5 23.3-1.1 25.4-12 39.3-54.1 26.7-80.7-6.9-14.8-17.1-20.7-30.5-17.9z" data-element="el-5"></path>
  <path d="M621 477c-21.7 3.9-44.1 26.4-49.6 49.7-2.1 9-1.5 20.1 1.6 27.1 3.3 7.6 10.4 13.7 17.7 15.2 23.7 5 51.7-15.1 62.8-45.1 5.1-13.5 3.5-28.5-4-38.3-5.2-6.8-17.7-10.6-28.5-8.6z" data-element="el-6"></path>
  <path d="M439 477.9c-19.4 6.3-32.6 35.9-27.6 61.6 2.9 14.5 11.5 27.9 21.2 32.6 3.8 1.8 5.7 2.1 11.2 1.7 8-.6 13.2-3 18.8-9 9.5-9.8 14.4-22.1 15.1-37.8.8-15.7-3.2-29.2-11.9-40.2-5.3-6.7-19.3-11.4-26.8-8.9z" data-element="el-7"></path>
  <path d="M131 528.3c-12.2 3.5-21.9 12-28.7 25.3-11.7 22.6-11.8 47-.2 64.3 5.9 8.9 11 11.6 21.4 11.6 6.8 0 8.8-.5 13.5-2.9 24.7-12.9 38.2-54.3 26.1-80.2-7-14.9-19.2-21.8-32.1-18.1z" data-element="el-8"></path>
  <path d="M215.3 575.4c-20.4 5.2-40.7 26.3-46.3 48.1-2.4 9.4-2.5 16-.4 23.4 2 7.1 5.8 12.7 11.3 16.6 3.8 2.7 5.2 3 13.2 3.3 6.9.3 10.4-.1 15.7-1.7 17.4-5.3 33.3-21.3 41.4-41.6 2.7-6.8 3.2-9.3 3.2-17 .1-11-1.9-17.5-7.4-23.8-2.2-2.5-5.9-5.2-8.2-6.2-5.6-2.2-16.1-2.8-22.5-1.1z" data-element="el-9"></path>
  <path d="M34.4 576.3c-15.1 5.7-26.6 27-26.6 49.2 0 15.7 4.9 28.9 14.3 38.4 6.2 6.3 11.9 8.6 19.9 7.8 7.4-.6 13.1-3.8 19.4-10.8C70.3 651 75 637.4 75 621.5c0-15.5-4.6-28.7-13.2-38-6.6-7.3-18.8-10.4-27.4-7.2z" data-element="el-10"></path>
  <path d="M484 576.4c-19.9 4.2-46.8 20.4-65.5 39.3-11.6 11.7-14.7 17-15.3 26.1-.8 11.7 3.5 20.4 12.8 26 7.6 4.5 15.3 6.7 32.6 9.2 32.9 4.6 42 9.6 62.8 34.4 12.1 14.4 15 17 21.6 20 18.6 8.4 33.1.4 39.1-21.6 2.2-8.2 2.7-24.7 1.3-41.3-2.3-27.2-5.8-41.8-13.9-58.4-7.8-16-21-27.1-38.3-32.3-8.7-2.6-28-3.3-37.2-1.4z" data-element="el-11"></path>
  <path d="M630.5 580.1c-14.4 4.8-26.1 13.1-34.7 24.7-16.5 22.3-12.7 47.8 8.1 53.6 16.9 4.7 35.2-1.4 50.7-16.9 6.4-6.4 9-10 12.5-17 4.3-8.6 4.4-9.1 4.3-17.9-.1-13.9-4.7-21.7-15-25.6-6-2.2-20.3-2.7-25.9-.9z" data-element="el-12"></path>
  <path d="M78 675c-9.8 2.5-31.1 13.3-43 21.8-11.5 8.2-27.5 24.1-31.4 31.1-7.2 13.3-2.8 30.2 9.9 38.1 6 3.7 14.7 6 33.5 9 33.6 5.3 41 9.4 61.4 33.9 15.9 19 22.4 23.3 35.4 23.2 20.8-.2 30.4-22.2 27.2-62.5-4.5-57.9-20.4-85.5-54.3-94.3-11.5-3-27.6-3.1-38.7-.3z" data-element="el-13"></path>
  <path d="M232.3 677.1c-16.2 2.8-32 14-42.3 30-4.8 7.4-7 14.7-7 23.1 0 16.6 8.9 25.8 26.5 27.4 17.9 1.7 40.3-11.3 51.9-30 10.4-16.7 10.1-34-.6-44.3-5.8-5.6-17.6-8.2-28.5-6.2z" data-element="el-14"></path>
  <path d="M229.9 976.9c-11.2 4.4-19.4 12.8-26 26.6-11.5 24.1-9.9 49.8 4.1 65.8 2.2 2.5 5.9 5.2 8.2 6.2 25.1 10.1 53.6-21.1 54-59 .1-13.9-2.8-23.1-10.3-32.5-6.7-8.3-19.3-11.3-30-7.1z" data-element="el-15"></path>
  <path d="M139.7 1023.1c-6.1 1.4-9.2 3.5-14.5 9.5-9.4 10.5-14.5 24.4-14.5 39.9-.1 15.2 4.3 27.8 12.9 37.4 6.3 7 11.1 9.3 18.9 9.3 28.2-.2 45.5-45.9 29.4-77.6-1.7-3.4-4.4-7.8-6.1-9.8-5.3-6.7-17.5-10.8-26.1-8.7z" data-element="el-16"></path>
  <path d="M314.1 1024c-12.5 4.6-24.6 14.5-33.1 27-19.2 28.3-11.8 61.9 13.9 63.8 22.9 1.7 47.6-17 58.2-44 7.4-18.9 2.4-39.2-11.5-46.6-5-2.6-20.7-2.7-27.5-.2z" data-element="el-17"></path>
  <path d="M187.8 1121c-13.7 2.5-29.1 9.4-46.3 20.8-11.8 7.8-32.1 27.3-35.5 34.2-2.8 5.6-3.8 16.1-2 21.6 4.8 14.7 15.2 20.2 46.1 24.8 32.1 4.8 40.6 9.4 61.1 33.8 12.3 14.6 14.8 17 21.7 20.4 7.1 3.5 18.5 4 24 1 16-8.6 21.1-35.9 15-79.6-3.8-27.8-11.5-46.5-24.4-59.6-7.6-7.7-17-13.1-28-15.9-7.1-1.9-25.1-2.8-31.7-1.5z" data-element="el-18"></path>
  <path d="M330.3 1125.5c-14.6 4-28.9 15.2-38.2 30-9.2 14.5-8.3 33.7 2 43 10.3 9.2 31.7 8.5 48.7-1.7 12-7.3 24.1-22.5 27.6-34.7 4.8-16.6-1.6-32-15.3-36.4-6.4-2.1-17.5-2.1-24.8-.2z" data-element="el-19"></path>
</svg>
</g></svg></g></g><g id="transformed-97653" data-image="97653" data-satelite="1,0" transform="translate(184.5, -125) rotate(0, 65.5, 125)" class="canvas-satelite-76600"><g><svg version="1.1" width="131px" height="250px" viewBox="0 0 131 250"><g id="original-97653"><svg xmlns="http://www.w3.org/2000/svg" version="1.1" viewBox="0 0 672 1280" xmlns:xlink="http://www.w3.org/1999/xlink" preserveAspectRatio="xMidYMid meet">
  <path d="M475.3 1.5c-17.8 5.5-31.9 25.7-35.4 50.8-2.8 19.9 5.4 41.7 18 47.9 7 3.5 16.7 3.2 24.5-.6 7.9-3.9 17.2-13.3 21.8-22.1 13.9-26.7 12.1-56.1-4.3-70.9-7.2-6.5-15-8.1-24.6-5.1z" data-element="el-0"></path>
  <path d="M558.9 48.9C543 54 527.2 68.4 518.8 85.5c-3.9 7.9-5.3 14.3-5.3 24 0 8.2.3 9.7 3.3 15.7 5.8 11.9 12.4 15.4 27.4 14.5 7.6-.4 9.7-1 17.5-4.7 7.3-3.5 10.3-5.8 17.3-12.9 8.8-8.8 13.3-15.9 18.1-28.6 3-7.9 3.2-20.6.5-28.5-2.6-7.4-10.3-15.2-16.8-16.8-6.6-1.7-15.3-1.4-21.9.7z" data-element="el-1"></path>
  <path d="M379.7 49.4c-10.4 3.7-19.8 16.6-24.2 33.1-1.9 7.2-2.2 23-.5 30 3.3 13.4 13.6 27.7 22.6 31.1 9.2 3.5 21.5-.4 29.4-9.3 9.1-10.3 14-24.3 14-39.8 0-26.5-13.9-46.6-32-46.4-3 0-7.2.6-9.3 1.3z" data-element="el-2"></path>
  <path d="M432.5 146.1c-13.8 2.1-30.3 9.2-46.8 20.3-18.4 12.3-35.4 29.7-38.2 38.9-4.3 14.4 1.4 28.1 14.4 34.6 6.8 3.4 15 5.5 29.6 7.6 15 2.2 22.9 4 30.4 7 12.2 5 17.9 9.8 32.7 27.5 6.3 7.6 13.2 15 15.3 16.4 11.8 8.2 26.9 8.8 35 1.3 9.9-9.2 14.3-29.5 12.1-56.7-2.3-29.6-5.8-44.7-14.2-62-6.2-12.8-14.2-21.4-25.5-27.3-12.5-6.6-31.1-9.7-44.8-7.6z" data-element="el-3"></path>
  <path d="M575.2 150.4c-10.6 2.6-20.1 8.2-29.3 17.5-11.4 11.5-16 20.4-16.7 32.1-.6 10.5 1 15.8 6.4 21.9 3.3 3.7 5.7 5.2 10.1 6.7 22.7 7.4 51.8-7.7 64.6-33.5 4-8.1 4.2-8.8 4.2-18 0-8.8-.3-10.1-3-15-1.7-3-4.6-6.4-6.6-7.8-7.5-4.9-19-6.4-29.7-3.9z" data-element="el-4"></path>
  <path d="M535 430.4c-8.5 1.8-12.9 4.4-20 11.6-7.2 7.2-13.4 18.4-16.6 30-2.6 9.2-2.6 27.5 0 35 3.7 11.1 10.4 20.1 17.1 23.1 6.5 3 15.7 2.5 23.3-1.1 25.4-12 39.3-54.1 26.7-80.7-6.9-14.8-17.1-20.7-30.5-17.9z" data-element="el-5"></path>
  <path d="M621 477c-21.7 3.9-44.1 26.4-49.6 49.7-2.1 9-1.5 20.1 1.6 27.1 3.3 7.6 10.4 13.7 17.7 15.2 23.7 5 51.7-15.1 62.8-45.1 5.1-13.5 3.5-28.5-4-38.3-5.2-6.8-17.7-10.6-28.5-8.6z" data-element="el-6"></path>
  <path d="M439 477.9c-19.4 6.3-32.6 35.9-27.6 61.6 2.9 14.5 11.5 27.9 21.2 32.6 3.8 1.8 5.7 2.1 11.2 1.7 8-.6 13.2-3 18.8-9 9.5-9.8 14.4-22.1 15.1-37.8.8-15.7-3.2-29.2-11.9-40.2-5.3-6.7-19.3-11.4-26.8-8.9z" data-element="el-7"></path>
  <path d="M131 528.3c-12.2 3.5-21.9 12-28.7 25.3-11.7 22.6-11.8 47-.2 64.3 5.9 8.9 11 11.6 21.4 11.6 6.8 0 8.8-.5 13.5-2.9 24.7-12.9 38.2-54.3 26.1-80.2-7-14.9-19.2-21.8-32.1-18.1z" data-element="el-8"></path>
  <path d="M215.3 575.4c-20.4 5.2-40.7 26.3-46.3 48.1-2.4 9.4-2.5 16-.4 23.4 2 7.1 5.8 12.7 11.3 16.6 3.8 2.7 5.2 3 13.2 3.3 6.9.3 10.4-.1 15.7-1.7 17.4-5.3 33.3-21.3 41.4-41.6 2.7-6.8 3.2-9.3 3.2-17 .1-11-1.9-17.5-7.4-23.8-2.2-2.5-5.9-5.2-8.2-6.2-5.6-2.2-16.1-2.8-22.5-1.1z" data-element="el-9"></path>
  <path d="M34.4 576.3c-15.1 5.7-26.6 27-26.6 49.2 0 15.7 4.9 28.9 14.3 38.4 6.2 6.3 11.9 8.6 19.9 7.8 7.4-.6 13.1-3.8 19.4-10.8C70.3 651 75 637.4 75 621.5c0-15.5-4.6-28.7-13.2-38-6.6-7.3-18.8-10.4-27.4-7.2z" data-element="el-10"></path>
  <path d="M484 576.4c-19.9 4.2-46.8 20.4-65.5 39.3-11.6 11.7-14.7 17-15.3 26.1-.8 11.7 3.5 20.4 12.8 26 7.6 4.5 15.3 6.7 32.6 9.2 32.9 4.6 42 9.6 62.8 34.4 12.1 14.4 15 17 21.6 20 18.6 8.4 33.1.4 39.1-21.6 2.2-8.2 2.7-24.7 1.3-41.3-2.3-27.2-5.8-41.8-13.9-58.4-7.8-16-21-27.1-38.3-32.3-8.7-2.6-28-3.3-37.2-1.4z" data-element="el-11"></path>
  <path d="M630.5 580.1c-14.4 4.8-26.1 13.1-34.7 24.7-16.5 22.3-12.7 47.8 8.1 53.6 16.9 4.7 35.2-1.4 50.7-16.9 6.4-6.4 9-10 12.5-17 4.3-8.6 4.4-9.1 4.3-17.9-.1-13.9-4.7-21.7-15-25.6-6-2.2-20.3-2.7-25.9-.9z" data-element="el-12"></path>
  <path d="M78 675c-9.8 2.5-31.1 13.3-43 21.8-11.5 8.2-27.5 24.1-31.4 31.1-7.2 13.3-2.8 30.2 9.9 38.1 6 3.7 14.7 6 33.5 9 33.6 5.3 41 9.4 61.4 33.9 15.9 19 22.4 23.3 35.4 23.2 20.8-.2 30.4-22.2 27.2-62.5-4.5-57.9-20.4-85.5-54.3-94.3-11.5-3-27.6-3.1-38.7-.3z" data-element="el-13"></path>
  <path d="M232.3 677.1c-16.2 2.8-32 14-42.3 30-4.8 7.4-7 14.7-7 23.1 0 16.6 8.9 25.8 26.5 27.4 17.9 1.7 40.3-11.3 51.9-30 10.4-16.7 10.1-34-.6-44.3-5.8-5.6-17.6-8.2-28.5-6.2z" data-element="el-14"></path>
  <path d="M229.9 976.9c-11.2 4.4-19.4 12.8-26 26.6-11.5 24.1-9.9 49.8 4.1 65.8 2.2 2.5 5.9 5.2 8.2 6.2 25.1 10.1 53.6-21.1 54-59 .1-13.9-2.8-23.1-10.3-32.5-6.7-8.3-19.3-11.3-30-7.1z" data-element="el-15"></path>
  <path d="M139.7 1023.1c-6.1 1.4-9.2 3.5-14.5 9.5-9.4 10.5-14.5 24.4-14.5 39.9-.1 15.2 4.3 27.8 12.9 37.4 6.3 7 11.1 9.3 18.9 9.3 28.2-.2 45.5-45.9 29.4-77.6-1.7-3.4-4.4-7.8-6.1-9.8-5.3-6.7-17.5-10.8-26.1-8.7z" data-element="el-16"></path>
  <path d="M314.1 1024c-12.5 4.6-24.6 14.5-33.1 27-19.2 28.3-11.8 61.9 13.9 63.8 22.9 1.7 47.6-17 58.2-44 7.4-18.9 2.4-39.2-11.5-46.6-5-2.6-20.7-2.7-27.5-.2z" data-element="el-17"></path>
  <path d="M187.8 1121c-13.7 2.5-29.1 9.4-46.3 20.8-11.8 7.8-32.1 27.3-35.5 34.2-2.8 5.6-3.8 16.1-2 21.6 4.8 14.7 15.2 20.2 46.1 24.8 32.1 4.8 40.6 9.4 61.1 33.8 12.3 14.6 14.8 17 21.7 20.4 7.1 3.5 18.5 4 24 1 16-8.6 21.1-35.9 15-79.6-3.8-27.8-11.5-46.5-24.4-59.6-7.6-7.7-17-13.1-28-15.9-7.1-1.9-25.1-2.8-31.7-1.5z" data-element="el-18"></path>
  <path d="M330.3 1125.5c-14.6 4-28.9 15.2-38.2 30-9.2 14.5-8.3 33.7 2 43 10.3 9.2 31.7 8.5 48.7-1.7 12-7.3 24.1-22.5 27.6-34.7 4.8-16.6-1.6-32-15.3-36.4-6.4-2.1-17.5-2.1-24.8-.2z" data-element="el-19"></path>
</svg>
</g></svg></g></g><g id="transformed-97653" data-image="97653" data-satelite="-1,1" transform="translate(-315.5, 125) rotate(0, 65.5, 125)" class="canvas-satelite-76600"><g><svg version="1.1" width="131px" height="250px" viewBox="0 0 131 250"><g id="original-97653"><svg xmlns="http://www.w3.org/2000/svg" version="1.1" viewBox="0 0 672 1280" xmlns:xlink="http://www.w3.org/1999/xlink" preserveAspectRatio="xMidYMid meet">
  <path d="M475.3 1.5c-17.8 5.5-31.9 25.7-35.4 50.8-2.8 19.9 5.4 41.7 18 47.9 7 3.5 16.7 3.2 24.5-.6 7.9-3.9 17.2-13.3 21.8-22.1 13.9-26.7 12.1-56.1-4.3-70.9-7.2-6.5-15-8.1-24.6-5.1z" data-element="el-0"></path>
  <path d="M558.9 48.9C543 54 527.2 68.4 518.8 85.5c-3.9 7.9-5.3 14.3-5.3 24 0 8.2.3 9.7 3.3 15.7 5.8 11.9 12.4 15.4 27.4 14.5 7.6-.4 9.7-1 17.5-4.7 7.3-3.5 10.3-5.8 17.3-12.9 8.8-8.8 13.3-15.9 18.1-28.6 3-7.9 3.2-20.6.5-28.5-2.6-7.4-10.3-15.2-16.8-16.8-6.6-1.7-15.3-1.4-21.9.7z" data-element="el-1"></path>
  <path d="M379.7 49.4c-10.4 3.7-19.8 16.6-24.2 33.1-1.9 7.2-2.2 23-.5 30 3.3 13.4 13.6 27.7 22.6 31.1 9.2 3.5 21.5-.4 29.4-9.3 9.1-10.3 14-24.3 14-39.8 0-26.5-13.9-46.6-32-46.4-3 0-7.2.6-9.3 1.3z" data-element="el-2"></path>
  <path d="M432.5 146.1c-13.8 2.1-30.3 9.2-46.8 20.3-18.4 12.3-35.4 29.7-38.2 38.9-4.3 14.4 1.4 28.1 14.4 34.6 6.8 3.4 15 5.5 29.6 7.6 15 2.2 22.9 4 30.4 7 12.2 5 17.9 9.8 32.7 27.5 6.3 7.6 13.2 15 15.3 16.4 11.8 8.2 26.9 8.8 35 1.3 9.9-9.2 14.3-29.5 12.1-56.7-2.3-29.6-5.8-44.7-14.2-62-6.2-12.8-14.2-21.4-25.5-27.3-12.5-6.6-31.1-9.7-44.8-7.6z" data-element="el-3"></path>
  <path d="M575.2 150.4c-10.6 2.6-20.1 8.2-29.3 17.5-11.4 11.5-16 20.4-16.7 32.1-.6 10.5 1 15.8 6.4 21.9 3.3 3.7 5.7 5.2 10.1 6.7 22.7 7.4 51.8-7.7 64.6-33.5 4-8.1 4.2-8.8 4.2-18 0-8.8-.3-10.1-3-15-1.7-3-4.6-6.4-6.6-7.8-7.5-4.9-19-6.4-29.7-3.9z" data-element="el-4"></path>
  <path d="M535 430.4c-8.5 1.8-12.9 4.4-20 11.6-7.2 7.2-13.4 18.4-16.6 30-2.6 9.2-2.6 27.5 0 35 3.7 11.1 10.4 20.1 17.1 23.1 6.5 3 15.7 2.5 23.3-1.1 25.4-12 39.3-54.1 26.7-80.7-6.9-14.8-17.1-20.7-30.5-17.9z" data-element="el-5"></path>
  <path d="M621 477c-21.7 3.9-44.1 26.4-49.6 49.7-2.1 9-1.5 20.1 1.6 27.1 3.3 7.6 10.4 13.7 17.7 15.2 23.7 5 51.7-15.1 62.8-45.1 5.1-13.5 3.5-28.5-4-38.3-5.2-6.8-17.7-10.6-28.5-8.6z" data-element="el-6"></path>
  <path d="M439 477.9c-19.4 6.3-32.6 35.9-27.6 61.6 2.9 14.5 11.5 27.9 21.2 32.6 3.8 1.8 5.7 2.1 11.2 1.7 8-.6 13.2-3 18.8-9 9.5-9.8 14.4-22.1 15.1-37.8.8-15.7-3.2-29.2-11.9-40.2-5.3-6.7-19.3-11.4-26.8-8.9z" data-element="el-7"></path>
  <path d="M131 528.3c-12.2 3.5-21.9 12-28.7 25.3-11.7 22.6-11.8 47-.2 64.3 5.9 8.9 11 11.6 21.4 11.6 6.8 0 8.8-.5 13.5-2.9 24.7-12.9 38.2-54.3 26.1-80.2-7-14.9-19.2-21.8-32.1-18.1z" data-element="el-8"></path>
  <path d="M215.3 575.4c-20.4 5.2-40.7 26.3-46.3 48.1-2.4 9.4-2.5 16-.4 23.4 2 7.1 5.8 12.7 11.3 16.6 3.8 2.7 5.2 3 13.2 3.3 6.9.3 10.4-.1 15.7-1.7 17.4-5.3 33.3-21.3 41.4-41.6 2.7-6.8 3.2-9.3 3.2-17 .1-11-1.9-17.5-7.4-23.8-2.2-2.5-5.9-5.2-8.2-6.2-5.6-2.2-16.1-2.8-22.5-1.1z" data-element="el-9"></path>
  <path d="M34.4 576.3c-15.1 5.7-26.6 27-26.6 49.2 0 15.7 4.9 28.9 14.3 38.4 6.2 6.3 11.9 8.6 19.9 7.8 7.4-.6 13.1-3.8 19.4-10.8C70.3 651 75 637.4 75 621.5c0-15.5-4.6-28.7-13.2-38-6.6-7.3-18.8-10.4-27.4-7.2z" data-element="el-10"></path>
  <path d="M484 576.4c-19.9 4.2-46.8 20.4-65.5 39.3-11.6 11.7-14.7 17-15.3 26.1-.8 11.7 3.5 20.4 12.8 26 7.6 4.5 15.3 6.7 32.6 9.2 32.9 4.6 42 9.6 62.8 34.4 12.1 14.4 15 17 21.6 20 18.6 8.4 33.1.4 39.1-21.6 2.2-8.2 2.7-24.7 1.3-41.3-2.3-27.2-5.8-41.8-13.9-58.4-7.8-16-21-27.1-38.3-32.3-8.7-2.6-28-3.3-37.2-1.4z" data-element="el-11"></path>
  <path d="M630.5 580.1c-14.4 4.8-26.1 13.1-34.7 24.7-16.5 22.3-12.7 47.8 8.1 53.6 16.9 4.7 35.2-1.4 50.7-16.9 6.4-6.4 9-10 12.5-17 4.3-8.6 4.4-9.1 4.3-17.9-.1-13.9-4.7-21.7-15-25.6-6-2.2-20.3-2.7-25.9-.9z" data-element="el-12"></path>
  <path d="M78 675c-9.8 2.5-31.1 13.3-43 21.8-11.5 8.2-27.5 24.1-31.4 31.1-7.2 13.3-2.8 30.2 9.9 38.1 6 3.7 14.7 6 33.5 9 33.6 5.3 41 9.4 61.4 33.9 15.9 19 22.4 23.3 35.4 23.2 20.8-.2 30.4-22.2 27.2-62.5-4.5-57.9-20.4-85.5-54.3-94.3-11.5-3-27.6-3.1-38.7-.3z" data-element="el-13"></path>
  <path d="M232.3 677.1c-16.2 2.8-32 14-42.3 30-4.8 7.4-7 14.7-7 23.1 0 16.6 8.9 25.8 26.5 27.4 17.9 1.7 40.3-11.3 51.9-30 10.4-16.7 10.1-34-.6-44.3-5.8-5.6-17.6-8.2-28.5-6.2z" data-element="el-14"></path>
  <path d="M229.9 976.9c-11.2 4.4-19.4 12.8-26 26.6-11.5 24.1-9.9 49.8 4.1 65.8 2.2 2.5 5.9 5.2 8.2 6.2 25.1 10.1 53.6-21.1 54-59 .1-13.9-2.8-23.1-10.3-32.5-6.7-8.3-19.3-11.3-30-7.1z" data-element="el-15"></path>
  <path d="M139.7 1023.1c-6.1 1.4-9.2 3.5-14.5 9.5-9.4 10.5-14.5 24.4-14.5 39.9-.1 15.2 4.3 27.8 12.9 37.4 6.3 7 11.1 9.3 18.9 9.3 28.2-.2 45.5-45.9 29.4-77.6-1.7-3.4-4.4-7.8-6.1-9.8-5.3-6.7-17.5-10.8-26.1-8.7z" data-element="el-16"></path>
  <path d="M314.1 1024c-12.5 4.6-24.6 14.5-33.1 27-19.2 28.3-11.8 61.9 13.9 63.8 22.9 1.7 47.6-17 58.2-44 7.4-18.9 2.4-39.2-11.5-46.6-5-2.6-20.7-2.7-27.5-.2z" data-element="el-17"></path>
  <path d="M187.8 1121c-13.7 2.5-29.1 9.4-46.3 20.8-11.8 7.8-32.1 27.3-35.5 34.2-2.8 5.6-3.8 16.1-2 21.6 4.8 14.7 15.2 20.2 46.1 24.8 32.1 4.8 40.6 9.4 61.1 33.8 12.3 14.6 14.8 17 21.7 20.4 7.1 3.5 18.5 4 24 1 16-8.6 21.1-35.9 15-79.6-3.8-27.8-11.5-46.5-24.4-59.6-7.6-7.7-17-13.1-28-15.9-7.1-1.9-25.1-2.8-31.7-1.5z" data-element="el-18"></path>
  <path d="M330.3 1125.5c-14.6 4-28.9 15.2-38.2 30-9.2 14.5-8.3 33.7 2 43 10.3 9.2 31.7 8.5 48.7-1.7 12-7.3 24.1-22.5 27.6-34.7 4.8-16.6-1.6-32-15.3-36.4-6.4-2.1-17.5-2.1-24.8-.2z" data-element="el-19"></path>
</svg>
</g></svg></g></g><g id="transformed-97653" data-image="97653" data-satelite="0,1" transform="translate(-65.5, 125) rotate(0, 65.5, 125)" class="canvas-satelite-76600"><g><svg version="1.1" width="131px" height="250px" viewBox="0 0 131 250"><g id="original-97653"><svg xmlns="http://www.w3.org/2000/svg" version="1.1" viewBox="0 0 672 1280" xmlns:xlink="http://www.w3.org/1999/xlink" preserveAspectRatio="xMidYMid meet">
  <path d="M475.3 1.5c-17.8 5.5-31.9 25.7-35.4 50.8-2.8 19.9 5.4 41.7 18 47.9 7 3.5 16.7 3.2 24.5-.6 7.9-3.9 17.2-13.3 21.8-22.1 13.9-26.7 12.1-56.1-4.3-70.9-7.2-6.5-15-8.1-24.6-5.1z" data-element="el-0"></path>
  <path d="M558.9 48.9C543 54 527.2 68.4 518.8 85.5c-3.9 7.9-5.3 14.3-5.3 24 0 8.2.3 9.7 3.3 15.7 5.8 11.9 12.4 15.4 27.4 14.5 7.6-.4 9.7-1 17.5-4.7 7.3-3.5 10.3-5.8 17.3-12.9 8.8-8.8 13.3-15.9 18.1-28.6 3-7.9 3.2-20.6.5-28.5-2.6-7.4-10.3-15.2-16.8-16.8-6.6-1.7-15.3-1.4-21.9.7z" data-element="el-1"></path>
  <path d="M379.7 49.4c-10.4 3.7-19.8 16.6-24.2 33.1-1.9 7.2-2.2 23-.5 30 3.3 13.4 13.6 27.7 22.6 31.1 9.2 3.5 21.5-.4 29.4-9.3 9.1-10.3 14-24.3 14-39.8 0-26.5-13.9-46.6-32-46.4-3 0-7.2.6-9.3 1.3z" data-element="el-2"></path>
  <path d="M432.5 146.1c-13.8 2.1-30.3 9.2-46.8 20.3-18.4 12.3-35.4 29.7-38.2 38.9-4.3 14.4 1.4 28.1 14.4 34.6 6.8 3.4 15 5.5 29.6 7.6 15 2.2 22.9 4 30.4 7 12.2 5 17.9 9.8 32.7 27.5 6.3 7.6 13.2 15 15.3 16.4 11.8 8.2 26.9 8.8 35 1.3 9.9-9.2 14.3-29.5 12.1-56.7-2.3-29.6-5.8-44.7-14.2-62-6.2-12.8-14.2-21.4-25.5-27.3-12.5-6.6-31.1-9.7-44.8-7.6z" data-element="el-3"></path>
  <path d="M575.2 150.4c-10.6 2.6-20.1 8.2-29.3 17.5-11.4 11.5-16 20.4-16.7 32.1-.6 10.5 1 15.8 6.4 21.9 3.3 3.7 5.7 5.2 10.1 6.7 22.7 7.4 51.8-7.7 64.6-33.5 4-8.1 4.2-8.8 4.2-18 0-8.8-.3-10.1-3-15-1.7-3-4.6-6.4-6.6-7.8-7.5-4.9-19-6.4-29.7-3.9z" data-element="el-4"></path>
  <path d="M535 430.4c-8.5 1.8-12.9 4.4-20 11.6-7.2 7.2-13.4 18.4-16.6 30-2.6 9.2-2.6 27.5 0 35 3.7 11.1 10.4 20.1 17.1 23.1 6.5 3 15.7 2.5 23.3-1.1 25.4-12 39.3-54.1 26.7-80.7-6.9-14.8-17.1-20.7-30.5-17.9z" data-element="el-5"></path>
  <path d="M621 477c-21.7 3.9-44.1 26.4-49.6 49.7-2.1 9-1.5 20.1 1.6 27.1 3.3 7.6 10.4 13.7 17.7 15.2 23.7 5 51.7-15.1 62.8-45.1 5.1-13.5 3.5-28.5-4-38.3-5.2-6.8-17.7-10.6-28.5-8.6z" data-element="el-6"></path>
  <path d="M439 477.9c-19.4 6.3-32.6 35.9-27.6 61.6 2.9 14.5 11.5 27.9 21.2 32.6 3.8 1.8 5.7 2.1 11.2 1.7 8-.6 13.2-3 18.8-9 9.5-9.8 14.4-22.1 15.1-37.8.8-15.7-3.2-29.2-11.9-40.2-5.3-6.7-19.3-11.4-26.8-8.9z" data-element="el-7"></path>
  <path d="M131 528.3c-12.2 3.5-21.9 12-28.7 25.3-11.7 22.6-11.8 47-.2 64.3 5.9 8.9 11 11.6 21.4 11.6 6.8 0 8.8-.5 13.5-2.9 24.7-12.9 38.2-54.3 26.1-80.2-7-14.9-19.2-21.8-32.1-18.1z" data-element="el-8"></path>
  <path d="M215.3 575.4c-20.4 5.2-40.7 26.3-46.3 48.1-2.4 9.4-2.5 16-.4 23.4 2 7.1 5.8 12.7 11.3 16.6 3.8 2.7 5.2 3 13.2 3.3 6.9.3 10.4-.1 15.7-1.7 17.4-5.3 33.3-21.3 41.4-41.6 2.7-6.8 3.2-9.3 3.2-17 .1-11-1.9-17.5-7.4-23.8-2.2-2.5-5.9-5.2-8.2-6.2-5.6-2.2-16.1-2.8-22.5-1.1z" data-element="el-9"></path>
  <path d="M34.4 576.3c-15.1 5.7-26.6 27-26.6 49.2 0 15.7 4.9 28.9 14.3 38.4 6.2 6.3 11.9 8.6 19.9 7.8 7.4-.6 13.1-3.8 19.4-10.8C70.3 651 75 637.4 75 621.5c0-15.5-4.6-28.7-13.2-38-6.6-7.3-18.8-10.4-27.4-7.2z" data-element="el-10"></path>
  <path d="M484 576.4c-19.9 4.2-46.8 20.4-65.5 39.3-11.6 11.7-14.7 17-15.3 26.1-.8 11.7 3.5 20.4 12.8 26 7.6 4.5 15.3 6.7 32.6 9.2 32.9 4.6 42 9.6 62.8 34.4 12.1 14.4 15 17 21.6 20 18.6 8.4 33.1.4 39.1-21.6 2.2-8.2 2.7-24.7 1.3-41.3-2.3-27.2-5.8-41.8-13.9-58.4-7.8-16-21-27.1-38.3-32.3-8.7-2.6-28-3.3-37.2-1.4z" data-element="el-11"></path>
  <path d="M630.5 580.1c-14.4 4.8-26.1 13.1-34.7 24.7-16.5 22.3-12.7 47.8 8.1 53.6 16.9 4.7 35.2-1.4 50.7-16.9 6.4-6.4 9-10 12.5-17 4.3-8.6 4.4-9.1 4.3-17.9-.1-13.9-4.7-21.7-15-25.6-6-2.2-20.3-2.7-25.9-.9z" data-element="el-12"></path>
  <path d="M78 675c-9.8 2.5-31.1 13.3-43 21.8-11.5 8.2-27.5 24.1-31.4 31.1-7.2 13.3-2.8 30.2 9.9 38.1 6 3.7 14.7 6 33.5 9 33.6 5.3 41 9.4 61.4 33.9 15.9 19 22.4 23.3 35.4 23.2 20.8-.2 30.4-22.2 27.2-62.5-4.5-57.9-20.4-85.5-54.3-94.3-11.5-3-27.6-3.1-38.7-.3z" data-element="el-13"></path>
  <path d="M232.3 677.1c-16.2 2.8-32 14-42.3 30-4.8 7.4-7 14.7-7 23.1 0 16.6 8.9 25.8 26.5 27.4 17.9 1.7 40.3-11.3 51.9-30 10.4-16.7 10.1-34-.6-44.3-5.8-5.6-17.6-8.2-28.5-6.2z" data-element="el-14"></path>
  <path d="M229.9 976.9c-11.2 4.4-19.4 12.8-26 26.6-11.5 24.1-9.9 49.8 4.1 65.8 2.2 2.5 5.9 5.2 8.2 6.2 25.1 10.1 53.6-21.1 54-59 .1-13.9-2.8-23.1-10.3-32.5-6.7-8.3-19.3-11.3-30-7.1z" data-element="el-15"></path>
  <path d="M139.7 1023.1c-6.1 1.4-9.2 3.5-14.5 9.5-9.4 10.5-14.5 24.4-14.5 39.9-.1 15.2 4.3 27.8 12.9 37.4 6.3 7 11.1 9.3 18.9 9.3 28.2-.2 45.5-45.9 29.4-77.6-1.7-3.4-4.4-7.8-6.1-9.8-5.3-6.7-17.5-10.8-26.1-8.7z" data-element="el-16"></path>
  <path d="M314.1 1024c-12.5 4.6-24.6 14.5-33.1 27-19.2 28.3-11.8 61.9 13.9 63.8 22.9 1.7 47.6-17 58.2-44 7.4-18.9 2.4-39.2-11.5-46.6-5-2.6-20.7-2.7-27.5-.2z" data-element="el-17"></path>
  <path d="M187.8 1121c-13.7 2.5-29.1 9.4-46.3 20.8-11.8 7.8-32.1 27.3-35.5 34.2-2.8 5.6-3.8 16.1-2 21.6 4.8 14.7 15.2 20.2 46.1 24.8 32.1 4.8 40.6 9.4 61.1 33.8 12.3 14.6 14.8 17 21.7 20.4 7.1 3.5 18.5 4 24 1 16-8.6 21.1-35.9 15-79.6-3.8-27.8-11.5-46.5-24.4-59.6-7.6-7.7-17-13.1-28-15.9-7.1-1.9-25.1-2.8-31.7-1.5z" data-element="el-18"></path>
  <path d="M330.3 1125.5c-14.6 4-28.9 15.2-38.2 30-9.2 14.5-8.3 33.7 2 43 10.3 9.2 31.7 8.5 48.7-1.7 12-7.3 24.1-22.5 27.6-34.7 4.8-16.6-1.6-32-15.3-36.4-6.4-2.1-17.5-2.1-24.8-.2z" data-element="el-19"></path>
</svg>
</g></svg></g></g><g id="transformed-97653" data-image="97653" data-satelite="1,1" transform="translate(184.5, 125) rotate(0, 65.5, 125)" class="canvas-satelite-76600"><g><svg version="1.1" width="131px" height="250px" viewBox="0 0 131 250"><g id="original-97653"><svg xmlns="http://www.w3.org/2000/svg" version="1.1" viewBox="0 0 672 1280" xmlns:xlink="http://www.w3.org/1999/xlink" preserveAspectRatio="xMidYMid meet">
  <path d="M475.3 1.5c-17.8 5.5-31.9 25.7-35.4 50.8-2.8 19.9 5.4 41.7 18 47.9 7 3.5 16.7 3.2 24.5-.6 7.9-3.9 17.2-13.3 21.8-22.1 13.9-26.7 12.1-56.1-4.3-70.9-7.2-6.5-15-8.1-24.6-5.1z" data-element="el-0"></path>
  <path d="M558.9 48.9C543 54 527.2 68.4 518.8 85.5c-3.9 7.9-5.3 14.3-5.3 24 0 8.2.3 9.7 3.3 15.7 5.8 11.9 12.4 15.4 27.4 14.5 7.6-.4 9.7-1 17.5-4.7 7.3-3.5 10.3-5.8 17.3-12.9 8.8-8.8 13.3-15.9 18.1-28.6 3-7.9 3.2-20.6.5-28.5-2.6-7.4-10.3-15.2-16.8-16.8-6.6-1.7-15.3-1.4-21.9.7z" data-element="el-1"></path>
  <path d="M379.7 49.4c-10.4 3.7-19.8 16.6-24.2 33.1-1.9 7.2-2.2 23-.5 30 3.3 13.4 13.6 27.7 22.6 31.1 9.2 3.5 21.5-.4 29.4-9.3 9.1-10.3 14-24.3 14-39.8 0-26.5-13.9-46.6-32-46.4-3 0-7.2.6-9.3 1.3z" data-element="el-2"></path>
  <path d="M432.5 146.1c-13.8 2.1-30.3 9.2-46.8 20.3-18.4 12.3-35.4 29.7-38.2 38.9-4.3 14.4 1.4 28.1 14.4 34.6 6.8 3.4 15 5.5 29.6 7.6 15 2.2 22.9 4 30.4 7 12.2 5 17.9 9.8 32.7 27.5 6.3 7.6 13.2 15 15.3 16.4 11.8 8.2 26.9 8.8 35 1.3 9.9-9.2 14.3-29.5 12.1-56.7-2.3-29.6-5.8-44.7-14.2-62-6.2-12.8-14.2-21.4-25.5-27.3-12.5-6.6-31.1-9.7-44.8-7.6z" data-element="el-3"></path>
  <path d="M575.2 150.4c-10.6 2.6-20.1 8.2-29.3 17.5-11.4 11.5-16 20.4-16.7 32.1-.6 10.5 1 15.8 6.4 21.9 3.3 3.7 5.7 5.2 10.1 6.7 22.7 7.4 51.8-7.7 64.6-33.5 4-8.1 4.2-8.8 4.2-18 0-8.8-.3-10.1-3-15-1.7-3-4.6-6.4-6.6-7.8-7.5-4.9-19-6.4-29.7-3.9z" data-element="el-4"></path>
  <path d="M535 430.4c-8.5 1.8-12.9 4.4-20 11.6-7.2 7.2-13.4 18.4-16.6 30-2.6 9.2-2.6 27.5 0 35 3.7 11.1 10.4 20.1 17.1 23.1 6.5 3 15.7 2.5 23.3-1.1 25.4-12 39.3-54.1 26.7-80.7-6.9-14.8-17.1-20.7-30.5-17.9z" data-element="el-5"></path>
  <path d="M621 477c-21.7 3.9-44.1 26.4-49.6 49.7-2.1 9-1.5 20.1 1.6 27.1 3.3 7.6 10.4 13.7 17.7 15.2 23.7 5 51.7-15.1 62.8-45.1 5.1-13.5 3.5-28.5-4-38.3-5.2-6.8-17.7-10.6-28.5-8.6z" data-element="el-6"></path>
  <path d="M439 477.9c-19.4 6.3-32.6 35.9-27.6 61.6 2.9 14.5 11.5 27.9 21.2 32.6 3.8 1.8 5.7 2.1 11.2 1.7 8-.6 13.2-3 18.8-9 9.5-9.8 14.4-22.1 15.1-37.8.8-15.7-3.2-29.2-11.9-40.2-5.3-6.7-19.3-11.4-26.8-8.9z" data-element="el-7"></path>
  <path d="M131 528.3c-12.2 3.5-21.9 12-28.7 25.3-11.7 22.6-11.8 47-.2 64.3 5.9 8.9 11 11.6 21.4 11.6 6.8 0 8.8-.5 13.5-2.9 24.7-12.9 38.2-54.3 26.1-80.2-7-14.9-19.2-21.8-32.1-18.1z" data-element="el-8"></path>
  <path d="M215.3 575.4c-20.4 5.2-40.7 26.3-46.3 48.1-2.4 9.4-2.5 16-.4 23.4 2 7.1 5.8 12.7 11.3 16.6 3.8 2.7 5.2 3 13.2 3.3 6.9.3 10.4-.1 15.7-1.7 17.4-5.3 33.3-21.3 41.4-41.6 2.7-6.8 3.2-9.3 3.2-17 .1-11-1.9-17.5-7.4-23.8-2.2-2.5-5.9-5.2-8.2-6.2-5.6-2.2-16.1-2.8-22.5-1.1z" data-element="el-9"></path>
  <path d="M34.4 576.3c-15.1 5.7-26.6 27-26.6 49.2 0 15.7 4.9 28.9 14.3 38.4 6.2 6.3 11.9 8.6 19.9 7.8 7.4-.6 13.1-3.8 19.4-10.8C70.3 651 75 637.4 75 621.5c0-15.5-4.6-28.7-13.2-38-6.6-7.3-18.8-10.4-27.4-7.2z" data-element="el-10"></path>
  <path d="M484 576.4c-19.9 4.2-46.8 20.4-65.5 39.3-11.6 11.7-14.7 17-15.3 26.1-.8 11.7 3.5 20.4 12.8 26 7.6 4.5 15.3 6.7 32.6 9.2 32.9 4.6 42 9.6 62.8 34.4 12.1 14.4 15 17 21.6 20 18.6 8.4 33.1.4 39.1-21.6 2.2-8.2 2.7-24.7 1.3-41.3-2.3-27.2-5.8-41.8-13.9-58.4-7.8-16-21-27.1-38.3-32.3-8.7-2.6-28-3.3-37.2-1.4z" data-element="el-11"></path>
  <path d="M630.5 580.1c-14.4 4.8-26.1 13.1-34.7 24.7-16.5 22.3-12.7 47.8 8.1 53.6 16.9 4.7 35.2-1.4 50.7-16.9 6.4-6.4 9-10 12.5-17 4.3-8.6 4.4-9.1 4.3-17.9-.1-13.9-4.7-21.7-15-25.6-6-2.2-20.3-2.7-25.9-.9z" data-element="el-12"></path>
  <path d="M78 675c-9.8 2.5-31.1 13.3-43 21.8-11.5 8.2-27.5 24.1-31.4 31.1-7.2 13.3-2.8 30.2 9.9 38.1 6 3.7 14.7 6 33.5 9 33.6 5.3 41 9.4 61.4 33.9 15.9 19 22.4 23.3 35.4 23.2 20.8-.2 30.4-22.2 27.2-62.5-4.5-57.9-20.4-85.5-54.3-94.3-11.5-3-27.6-3.1-38.7-.3z" data-element="el-13"></path>
  <path d="M232.3 677.1c-16.2 2.8-32 14-42.3 30-4.8 7.4-7 14.7-7 23.1 0 16.6 8.9 25.8 26.5 27.4 17.9 1.7 40.3-11.3 51.9-30 10.4-16.7 10.1-34-.6-44.3-5.8-5.6-17.6-8.2-28.5-6.2z" data-element="el-14"></path>
  <path d="M229.9 976.9c-11.2 4.4-19.4 12.8-26 26.6-11.5 24.1-9.9 49.8 4.1 65.8 2.2 2.5 5.9 5.2 8.2 6.2 25.1 10.1 53.6-21.1 54-59 .1-13.9-2.8-23.1-10.3-32.5-6.7-8.3-19.3-11.3-30-7.1z" data-element="el-15"></path>
  <path d="M139.7 1023.1c-6.1 1.4-9.2 3.5-14.5 9.5-9.4 10.5-14.5 24.4-14.5 39.9-.1 15.2 4.3 27.8 12.9 37.4 6.3 7 11.1 9.3 18.9 9.3 28.2-.2 45.5-45.9 29.4-77.6-1.7-3.4-4.4-7.8-6.1-9.8-5.3-6.7-17.5-10.8-26.1-8.7z" data-element="el-16"></path>
  <path d="M314.1 1024c-12.5 4.6-24.6 14.5-33.1 27-19.2 28.3-11.8 61.9 13.9 63.8 22.9 1.7 47.6-17 58.2-44 7.4-18.9 2.4-39.2-11.5-46.6-5-2.6-20.7-2.7-27.5-.2z" data-element="el-17"></path>
  <path d="M187.8 1121c-13.7 2.5-29.1 9.4-46.3 20.8-11.8 7.8-32.1 27.3-35.5 34.2-2.8 5.6-3.8 16.1-2 21.6 4.8 14.7 15.2 20.2 46.1 24.8 32.1 4.8 40.6 9.4 61.1 33.8 12.3 14.6 14.8 17 21.7 20.4 7.1 3.5 18.5 4 24 1 16-8.6 21.1-35.9 15-79.6-3.8-27.8-11.5-46.5-24.4-59.6-7.6-7.7-17-13.1-28-15.9-7.1-1.9-25.1-2.8-31.7-1.5z" data-element="el-18"></path>
  <path d="M330.3 1125.5c-14.6 4-28.9 15.2-38.2 30-9.2 14.5-8.3 33.7 2 43 10.3 9.2 31.7 8.5 48.7-1.7 12-7.3 24.1-22.5 27.6-34.7 4.8-16.6-1.6-32-15.3-36.4-6.4-2.1-17.5-2.1-24.8-.2z" data-element="el-19"></path>
</svg>
</g></svg></g></g></g><rect width="1366" height="566" fill="url(#canvas-ptn-debugging)" class="canvas-clickTrough-abb12" data-reactid="110"></rect></svg>